<?xml version="1.0" encoding="utf-8"?>
<!-- Generator: Adobe Illustrator 26.1.0, SVG Export Plug-In . SVG Version: 6.00 Build 0)  -->
<svg version="1.1" id="Layer_1" xmlns="http://www.w3.org/2000/svg" xmlns:xlink="http://www.w3.org/1999/xlink" x="0px" y="0px"
	 viewBox="0 0 574.9 593.8" style="enable-background:new 0 0 574.9 593.8;" xml:space="preserve">
<style type="text/css">
	.st0{fill:#9F9E8C;}
	.st1{fill:#B48855;}
	.st2{fill:#C4996A;}
	.st3{fill:#5C3815;}
	.st4{fill:url(#SVGID_1_);}
	.st5{fill:url(#SVGID_00000072249906943886833230000003738481342128500110_);}
	.st6{fill:#BA905F;}
	.st7{fill:#A37D5E;}
	.st8{fill:url(#SVGID_00000082331140153274769560000015620743383176747176_);}
	.st9{fill:#95724C;}
	.st10{fill:#B38B5D;}
	.st11{fill:#B58D61;}
	.st12{fill:#8A846F;}
	.st13{fill:#BC956C;}
	.st14{fill:#170900;fill-opacity:0.38;}
	.st15{fill:#E4DCD1;}
	.st16{fill:url(#SVGID_00000076581895135376677670000005860029439800640409_);}
	.st17{fill:#EDEBDE;}
	.st18{fill:#485A20;}
	.st19{fill:url(#SVGID_00000017485313253496546360000014797371453547785864_);}
	.st20{fill:url(#SVGID_00000179647897499334479810000002778203085615291284_);}
</style>
<polygon class="st0" points="561.9,102.8 547.6,83.9 27.2,83.9 13,102.8 "/>
<rect x="15.2" y="224.6" transform="matrix(-1 -1.224647e-16 1.224647e-16 -1 570.4214 818.3587)" class="st1" width="540" height="369.3"/>
<rect x="15.2" y="102.8" transform="matrix(-1 -1.224647e-16 1.224647e-16 -1 570.4214 442.5587)" class="st2" width="540" height="236.9"/>
<rect x="544.6" y="346.7" transform="matrix(-1 -1.224647e-16 1.224647e-16 -1 1103.3928 940.5016)" class="st3" width="14.2" height="247.1"/>
<rect x="544.6" y="102.8" transform="matrix(-1 -1.224647e-16 1.224647e-16 -1 1103.3928 445.3873)" class="st3" width="14.2" height="239.8"/>
<rect x="16.8" y="346.7" transform="matrix(-1 -1.224647e-16 1.224647e-16 -1 47.3929 940.5016)" class="st3" width="13.9" height="247.1"/>
<rect x="16.8" y="102.8" transform="matrix(-1 -1.224647e-16 1.224647e-16 -1 47.3929 445.3873)" class="st3" width="13.9" height="239.8"/>
<linearGradient id="SVGID_1_" gradientUnits="userSpaceOnUse" x1="286.8821" y1="429.4937" x2="286.8821" y2="346.5793">
	<stop  offset="0" style="stop-color:#573517;stop-opacity:0"/>
	<stop  offset="1" style="stop-color:#3C2115"/>
</linearGradient>
<polygon class="st4" points="15.2,429.5 558.6,429.5 558.6,346.6 15.2,346.6 "/>
<linearGradient id="SVGID_00000008146927233260059450000001772369604242408608_" gradientUnits="userSpaceOnUse" x1="286.8821" y1="198.0651" x2="286.8821" y2="115.1508">
	<stop  offset="0" style="stop-color:#573517;stop-opacity:0"/>
	<stop  offset="1" style="stop-color:#3C2115"/>
</linearGradient>
<polygon style="fill:url(#SVGID_00000008146927233260059450000001772369604242408608_);" points="15.2,198.1 558.6,198.1 
	558.6,115.2 15.2,115.2 "/>
<rect x="279.4" y="52.5" transform="matrix(6.123234e-17 -1 1 6.123234e-17 -52.4936 627.3508)" class="st6" width="16" height="574.9"/>
<polygon class="st7" points="558.6,331.8 544.5,312.2 30.7,312.2 16.6,331.8 "/>
<linearGradient id="SVGID_00000018957595962034459350000014977814282338462141_" gradientUnits="userSpaceOnUse" x1="286.8821" y1="593.2936" x2="286.8821" y2="570.4079">
	<stop  offset="0" style="stop-color:#573517;stop-opacity:0"/>
	<stop  offset="5.471998e-02" style="stop-color:#503017;stop-opacity:4.377599e-02"/>
	<stop  offset="0.2045" style="stop-color:#452716;stop-opacity:0.1636"/>
	<stop  offset="0.4149" style="stop-color:#3E2215;stop-opacity:0.3319"/>
	<stop  offset="1" style="stop-color:#3C2115;stop-opacity:0.8"/>
</linearGradient>
<polygon style="fill:url(#SVGID_00000018957595962034459350000014977814282338462141_);" points="15.2,593.3 558.6,593.3 
	558.6,570.4 15.2,570.4 "/>
<rect x="279.4" y="276.1" transform="matrix(6.123234e-17 -1 1 6.123234e-17 -276.0651 850.9222)" class="st6" width="16" height="574.9"/>
<polygon class="st9" points="558.6,555.6 544.5,528.1 30.7,528.1 16.6,555.6 "/>
<rect y="102.8" class="st10" width="16" height="491"/>
<rect x="558.9" y="102.8" class="st11" width="16" height="491"/>
<g>
	<g>
		<polygon class="st12" points="16,103.4 0,103.4 16,82.2 32,82.2 		"/>
		<polygon class="st12" points="574.9,103.4 558.9,103.4 543.9,82.2 559.9,82.2 		"/>
	</g>
</g>
<rect x="279.4" y="-176.6" transform="matrix(6.123234e-17 -1 1 6.123234e-17 176.6207 398.2365)" class="st13" width="16" height="574.9"/>
<path class="st14" d="M421.9,23.5l-7.2,0l1.1-3.6l-16,9.7l17.6-18.4l-8.8,1.5l0.5-4.1l-12.9,12.8l11.4-17.4l-9.3,3l1.1-5.1l-6.2,3.6
	L387,1.2l0.5,7.2l-7.7-6.7l1.5,5.7l-8.2-1.7l-2-5.1l-6.8,9.1c-0.6-0.2-1.2-0.4-1.7-0.5l0.8-9.1l-4.1,3.6l-4.1-2.1l-0.6,6.7
	c0,0,0,0,0,0L347.4,2l0.4,7.8c-0.5,0.2-1,0.5-1.5,0.8L337.1,4l6.6,8.3l-5.1,0.5l1.3,3.5c-0.6,0.7-1.1,1.5-1.7,2.4l-5.8-1.8l4.1,3.6
	l-5.2,3.1l3,2.8c-0.3,0.7-0.6,1.4-0.8,2.2l-7.3-1.4l5.5,7.3c-0.9,3.6-4.3,6.1-4.8,9.8c-2.8,18.9,11,39.7,11,39.7l-52.1,0.8l77.1,8.2
	c0,0,22.9-29.6,23.2-54.3c6.1-0.3,12.3-0.7,18.2-1.3l17.5-10.2L411,26.5L421.9,23.5z"/>
<g>
	<path class="st15" d="M428.9,42.4C428.9,42.4,428.9,42.4,428.9,42.4c0-1.1-0.4-1.7-14.3-2.4c-8.7-0.4-20.2-0.6-32.4-0.6
		s-23.7,0.2-32.4,0.6c-12.7,0.6-14.1,1.2-14.3,2.1c0,0,0,0.1,0,0.1c0,0.1,0,0.1,0,0.2c0,0.1,0,0.3,0,0.4c0,0.7,0.1,2.2,0.9,7.3
		c1.5,10.3,14.4,43.7,25.7,44.2c11.3,0.5,37.5,0,37.5,0s9.6,1.3,13.4-4.6C417.3,83.1,430.1,63.7,428.9,42.4z"/>
	
		<linearGradient id="SVGID_00000145766696490989760450000016057557541923880369_" gradientUnits="userSpaceOnUse" x1="335.4152" y1="67.0507" x2="429.0818" y2="67.0507">
		<stop  offset="0" style="stop-color:#989185"/>
		<stop  offset="1" style="stop-color:#DBD4C9;stop-opacity:0"/>
	</linearGradient>
	<path style="fill:url(#SVGID_00000145766696490989760450000016057557541923880369_);" d="M429,42.5c0,0-0.1,0-0.1,0
		c0-1.1-0.2-1.8-14.3-2.4c-8.7-0.4-20.2-0.6-32.4-0.6s-23.7,0.2-32.4,0.6c-12.9,0.6-14.2,1.2-14.3,2.1c-0.1,0.2,0,0.5,0,0.8
		c0.1,1.2,0.4,3.3,0.9,7.2c1.5,10.3,14.4,43.7,25.7,44.2c11.3,0.5,37.5,0,37.5,0s9.6,1.3,13.4-4.6C417.3,83.1,430.2,63.8,429,42.5z"
		/>
	<ellipse class="st17" cx="382.2" cy="42.5" rx="46.3" ry="2.1"/>
	<ellipse class="st17" cx="382.2" cy="42.5" rx="45.4" ry="2.1"/>
	<path class="st18" d="M414.8,41.6l17.5-10.2l-10.8-0.6l10.8-3l-7.2,0l1.1-3.6l-16,9.7l17.6-18.4l-8.8,1.5l0.5-4.1l-12.9,12.8
		l11.4-17.4l-9.3,3l1.1-5.1l-6.2,3.6l-6.1-4.2l0.5,7.2L390.4,6l1.5,5.7l-10.3-2.1l3.6,4.1l-3.5-8.8l-8.8,11.8l1.1-12.3l-4.1,3.6
		l-4.1-2.1l-0.6,6.7L358,6.3l0.5,9.8l-10.8-7.8l6.6,8.3l-5.1,0.5l2.5,6.7l-8.7-2.6l4.1,3.6l-5.2,3.1l6.1,5.7l-11.3-2.1l8.2,10.8
		C344.9,42.3,382.9,45.1,414.8,41.6z"/>
</g>
<g>
	
		<linearGradient id="SVGID_00000021101838190799748860000008192918175789373073_" gradientUnits="userSpaceOnUse" x1="558.6393" y1="322.0079" x2="339.2107" y2="322.0079">
		<stop  offset="0" style="stop-color:#989185;stop-opacity:0.5"/>
		<stop  offset="1" style="stop-color:#DBD4C9;stop-opacity:0"/>
	</linearGradient>
	<polygon style="fill:url(#SVGID_00000021101838190799748860000008192918175789373073_);" points="339.2,312.2 472.8,331.8 
		558.6,331.8 544.5,312.2 	"/>
</g>
<g>
	
		<linearGradient id="SVGID_00000049194516350105467810000015719331714532594827_" gradientUnits="userSpaceOnUse" x1="558.5536" y1="541.8651" x2="280.5822" y2="541.8651">
		<stop  offset="0" style="stop-color:#989185;stop-opacity:0.5"/>
		<stop  offset="1" style="stop-color:#DBD4C9;stop-opacity:0"/>
	</linearGradient>
	<polygon style="fill:url(#SVGID_00000049194516350105467810000015719331714532594827_);" points="280.6,528.1 451.5,555.6 
		558.6,555.6 544.7,528.1 	"/>
</g>
</svg>
