<?xml version="1.0" encoding="utf-8"?>
<!-- Generator: Adobe Illustrator 26.1.0, SVG Export Plug-In . SVG Version: 6.00 Build 0)  -->
<svg version="1.1" id="Layer_1" xmlns="http://www.w3.org/2000/svg" xmlns:xlink="http://www.w3.org/1999/xlink" x="0px" y="0px"
	 viewBox="0 0 544.1 180.9" style="enable-background:new 0 0 544.1 180.9;" xml:space="preserve">
<style type="text/css">
	.st0{fill:#D9EDF2;}
	.st1{fill:#FFFFFF;}
	.st2{fill:#1A718F;}
	.st3{fill:#29B5C2;}
	.st4{fill:#E8C1A2;}
	.st5{fill:#B99D75;}
	.st6{fill:url(#SVGID_1_);}
	.st7{fill:#29A1BA;}
	.st8{fill:#C1E6EE;}
	.st9{fill:#D62C0B;}
	.st10{fill:#007790;}
	.st11{fill:#EA6654;}
</style>
<path class="st0" d="M0.9,180.9h543.2c0,0-18.4-42.9-73.6-26.9c0,0-4.2-44.3-42.4-38.2l-21.7,2.4c0,0,12.4-74.1-72.6-106.1
	c-70.3-26.4-125.4-7.5-159.4,38.2c0,0-43.8-10.8-58.9,6.1s-12.7,60.8-12.7,60.8s-39.6-15.1-45.7,25.9
	C57.1,143.1,7.1,114.8,0.9,180.9z"/>
<path class="st1" d="M459.7,171.9c0,0,55.2-21.2,81.1,9H0c0,0,20.3-37.2,61.3-23.1c0,0,4.2-39.6,52.8-25c0,0-13.2-75,70.7-65.1
	c0,0,36.6-46.4,97.1-40.5c43.8,4.2,113.6,54.2,111.7,111.3C393.7,138.4,442.3,118.1,459.7,171.9z"/>
<g>
	<polygon class="st0" points="251.9,180.8 272.5,180.8 368.8,123.6 303.7,86.2 251.9,113.6 	"/>
	<polygon class="st2" points="270.7,78.5 173.6,135.6 251.3,180.9 348.3,123.8 348.3,120.7 	"/>
	<polygon class="st3" points="272.7,77 175.7,134.1 251.3,177.8 348.3,120.7 	"/>
	<polygon class="st4" points="264,70.4 179.6,113 179.6,131.7 251.3,173.1 339.1,120.8 339.1,95.5 	"/>
	<polygon class="st5" points="273.7,58.2 176.7,115.3 251.3,158.7 339.1,107.6 339.1,102 	"/>
	<linearGradient id="SVGID_1_" gradientUnits="userSpaceOnUse" x1="175.8659" y1="107.0079" x2="286.6088" y2="102.3794">
		<stop  offset="0" style="stop-color:#1A718F"/>
		<stop  offset="1" style="stop-color:#218DA7"/>
	</linearGradient>
	<path class="st6" d="M269.6,52.3c-7.8,4.5-97,57.1-97,57.1l78.7,46.3l97-57.1v-3.1l-68.4-37.2C279.9,58.3,277.4,47.7,269.6,52.3z"
		/>
	<polygon class="st7" points="279.2,55 182.2,112.1 251.3,152.6 348.3,95.5 	"/>
	<polygon class="st8" points="273.7,70.1 247,86.8 287.7,110.1 314.4,93.4 	"/>
	<polygon class="st9" points="189.9,131.7 185,133.8 184.5,156.2 189.9,151.8 196.6,163.1 196.9,140.5 201.2,138.9 	"/>
	<path class="st2" d="M179.6,135.3l-6,0.3c0,0-3.5-7.2-3.5-15.3s2.5-10.9,2.5-10.9l2.4-1.4l4.6,2.7V135.3z"/>
	<polygon class="st10" points="179.6,136.4 175.5,134.2 175.5,110.9 179.6,113.4 	"/>
	<polygon class="st11" points="189.9,131.7 185,133.8 196.9,140.5 201.2,138.9 	"/>
</g>
</svg>
