<?xml version="1.0" encoding="utf-8"?>
<!-- Generator: Adobe Illustrator 26.1.0, SVG Export Plug-In . SVG Version: 6.00 Build 0)  -->
<svg version="1.1" id="Layer_1" xmlns="http://www.w3.org/2000/svg" xmlns:xlink="http://www.w3.org/1999/xlink" x="0px" y="0px"
	 viewBox="0 0 198.7 129.7" style="enable-background:new 0 0 198.7 129.7;" xml:space="preserve">
<style type="text/css">
	.st0{fill:#D6D9DE;}
	.st1{fill:#1A718F;}
	.st2{fill:#29B5C2;}
	.st3{fill:#E8C1A2;}
	.st4{fill:#B99D75;}
	.st5{fill:url(#SVGID_1_);}
	.st6{fill:#29A1BA;}
	.st7{fill:#C1E6EE;}
	.st8{fill:#D62C0B;}
	.st9{fill:#007790;}
	.st10{fill:#EA6654;}
</style>
<g>
	<polygon class="st0" points="81.8,129.7 102.3,129.7 198.7,72.4 133.5,35.1 81.8,62.5 	"/>
	<polygon class="st1" points="100.5,27.4 3.5,84.5 81.2,129.7 178.2,72.6 178.2,69.5 	"/>
	<polygon class="st2" points="102.6,25.8 5.6,82.9 81.2,126.6 178.2,69.5 	"/>
	<polygon class="st3" points="93.9,19.3 9.5,61.8 9.5,80.5 81.2,122 168.9,69.7 168.9,44.3 	"/>
	<polygon class="st4" points="103.6,7 6.6,64.1 81.2,107.6 168.9,56.5 168.9,50.9 	"/>
	<linearGradient id="SVGID_1_" gradientUnits="userSpaceOnUse" x1="5.7516" y1="55.8637" x2="116.4945" y2="51.2351">
		<stop  offset="0" style="stop-color:#1A718F"/>
		<stop  offset="1" style="stop-color:#218DA7"/>
	</linearGradient>
	<path class="st5" d="M99.5,1.1c-7.8,4.5-97,57.1-97,57.1l78.7,46.3l97-57.1v-3.1L109.8,7.2C109.8,7.2,107.3-3.4,99.5,1.1z"/>
	<polygon class="st6" points="109.1,3.9 12.1,61 81.2,101.4 178.2,44.3 	"/>
	<polygon class="st7" points="103.5,18.9 76.9,35.6 117.6,59 144.3,42.3 	"/>
	<polygon class="st8" points="19.8,80.6 14.9,82.6 14.4,105 19.8,100.6 26.5,112 26.7,89.3 31.1,87.8 	"/>
	<path class="st1" d="M9.5,84.2l-6,0.3c0,0-3.5-7.2-3.5-15.3s2.5-10.9,2.5-10.9l2.4-1.4l4.6,2.7V84.2z"/>
	<polygon class="st9" points="9.5,85.2 5.4,83.1 5.4,59.8 9.5,62.3 	"/>
	<polygon class="st10" points="19.8,80.6 14.9,82.6 26.7,89.3 31.1,87.8 	"/>
</g>
</svg>
