<?xml version="1.0" encoding="utf-8"?>
<!-- Generator: Adobe Illustrator 26.1.0, SVG Export Plug-In . SVG Version: 6.00 Build 0)  -->
<svg version="1.1" id="Layer_1" xmlns="http://www.w3.org/2000/svg" xmlns:xlink="http://www.w3.org/1999/xlink" x="0px" y="0px"
	 viewBox="0 0 128 201" style="enable-background:new 0 0 128 201;" xml:space="preserve">
<style type="text/css">
	.st0{fill:#D1F2EB;}
	.st1{fill:url(#SVGID_1_);}
	.st2{fill:#FFFFFF;}
	.st3{fill:none;stroke:#000000;stroke-width:0.504;stroke-miterlimit:10;}
	.st4{fill:#B3D4C3;}
</style>
<rect x="0.2" class="st0" width="127.5" height="201"/>
<linearGradient id="SVGID_1_" gradientUnits="userSpaceOnUse" x1="126.3006" y1="11.7868" x2="-26.6977" y2="238.8341">
	<stop  offset="0" style="stop-color:#ADCEBB"/>
	<stop  offset="1" style="stop-color:#B6BAA9"/>
</linearGradient>
<rect x="5.3" class="st1" width="122.5" height="201"/>
<g>
	<path class="st2" d="M64.7,77H64L62.7,75l-9.1-13.8v13.6c0,0.9,0.5,1.5,1.3,1.5h0.9V77h-5.2v-0.7h1c0.4,0,1.2-0.5,1.2-1.5V61.6
		c0-1-0.8-1.1-1.1-1.1h-1.1v-0.7h3.5l9.8,14.8v-13c0-0.8-0.6-1.1-1.2-1.1h-1v-0.7h5.2v0.7h-1.1c-0.7,0-1.1,0.4-1.1,1.1V77z"/>
	<path class="st2" d="M73.7,77.5c-3.9,0-5.4-3.4-5.4-5.9c0-4.5,3.2-6.1,5.4-6.1c2.7,0,5.2,2,5.2,6.1C78.9,74.2,77.4,77.5,73.7,77.5z
		 M76.5,67.5c-0.7-0.9-1.7-1.3-2.8-1.3c-1.2,0-2.1,0.4-2.9,1.3c-0.8,0.9-1.1,2.2-1.1,4.1c0,1.7,0.6,5.1,4,5.1c3.1,0,3.9-3.1,3.9-5.1
		C77.5,69.8,77.2,68.4,76.5,67.5z"/>
	<path class="st2" d="M39.2,103.5c0,0.8,0.4,1.2,1.3,1.2h1.5v0.7h-6.7v-0.7h1.6c0.8,0,1.2-0.4,1.2-1.2V90c0-1-0.6-1.1-1.2-1.1h-1.6
		v-0.7h6.7v0.7h-1.5c-0.8,0-1.3,0.2-1.3,1.1V103.5z"/>
	<path class="st2" d="M44.6,96.4c0-0.6-0.7-0.7-1.8-0.7v-0.7c0.9,0,1.9-0.3,3-0.9V96c0.9-1.1,1.4-1.8,3-1.8c1,0,1.7,0.3,2.3,1.1
		c0.2,0.2,0.3,0.5,0.4,0.9c0.4-0.8,1.5-2,3.4-2c1.6,0,2.9,1.1,2.9,3.3v6.3c0,0.6,0.3,0.9,0.9,0.9h0.8v0.7H55v-0.7h0.9
		c0.5,0,0.8-0.3,0.8-0.9v-6.3c0-1.6-0.8-2.5-2-2.5c-1,0-2.6,0.9-2.9,2.2v6.6c0,0.6,0.3,0.9,0.9,0.9h0.8v0.7h-4.7v-0.7h1
		c0.4,0,0.8-0.3,0.8-0.9v-6.2c0-1.3-0.4-2.6-2.1-2.6c-0.9,0-2.4,0.7-2.7,2.5v6.4c0,0.6,0.3,0.9,0.8,0.9h0.9v0.7h-4.7v-0.7h0.7
		c0.4,0,1.1-0.1,1.1-0.9V96.4z"/>
	<path class="st2" d="M67.5,104.6c-1,0.8-2.3,1.2-3.7,1.2c-1.1,0-2.9-0.5-2.9-2.8c0-0.9,0.4-1.7,1.2-2.4c1.1-0.8,3.1-1.4,6.1-1.8
		v-1.6c0-1.6-1.5-2.6-2.9-2.6c-1.7,0-2.5,1.1-2.5,1.6v0.3c0,0.3,0.1,0.9-0.7,0.9c-0.6,0-0.7-0.4-0.7-0.7c0-1.5,1.6-2.8,3.9-2.8
		c2.5,0,4.1,1.7,4.1,3.3v5.5c0,0.9,0,2.4,0.5,2.4c0.2,0,0.5-0.4,0.8-1.3l0.7,0.4c-0.5,1.5-1.1,1.7-1.7,1.7c-1.3,0-1.3-1.2-1.4-2
		L67.5,104.6z M68.2,99.6c-2.4,0.4-4,0.9-5,1.6c-0.7,0.4-1,1.1-1,1.8c0,1.3,1.1,2.1,2.2,2.1c1.5,0,3.7-1.1,3.9-2.8V99.6z"/>
	<path class="st2" d="M78,103.1c2.9,0.6,4.8,1.1,4.8,2.3c0,0.9-0.9,2.5-5.7,2.5c-2.7,0-5.3-0.3-5.3-2c0-0.4,0.2-0.8,0.6-1.3
		c0.4-0.4,1.1-0.8,2.4-1.2c-1.6-0.4-1.7-0.7-1.7-1.3c0-1,1.2-1.4,1.7-1.6l-0.6-0.4c-0.9-0.7-1.3-1.6-1.3-2.5c0-2.6,2.4-3.6,4.4-3.6
		c1.2,0,2.2,0.3,2.9,0.9c0.5-0.5,1.5-1.2,2.5-1.2c0.8,0,0.9,0.5,0.9,0.6c0,0.5-0.3,0.7-0.7,0.7c-0.1,0-0.9-0.3-1-0.3h-0.1
		c-0.2,0-0.6,0.2-1,0.5c0.5,0.6,0.8,1.3,0.8,2.2c0,2-1.7,3.4-4.3,3.4c-1,0-2.8,0-2.8,0.8c0,0.1,0,0.2,0.1,0.3c0.2,0.1,1,0.3,2.5,0.7
		v0L78,103.1z M76,103.8c-1.3,0.4-3,1-3,2.2c0,1.2,3.3,1.2,4.1,1.2c3.4,0,4.5-1,4.5-1.5c0-0.7-1.6-1-3.6-1.4L76,103.8z M74,97.7
		c0,1.8,1.7,2.6,3,2.6c1.7,0,3-1,3-2.6c0-2-1.6-2.8-2.9-2.8C75.2,94.9,74,96,74,97.7z"/>
	<path class="st2" d="M86.2,99.5v0.5c0,2.6,1.8,5.1,4.2,5.1c1.8,0,2.8-1.2,3.9-2.7l0.6,0.4c-1.9,2.4-2.9,3-4.8,3
		c-3.6,0-5.2-3.2-5.2-5.8c0-3.7,2.5-6.1,4.9-6.1c2.6,0,4.8,2.2,4.8,5.6H86.2z M93.4,98.7c-0.1-1.4-0.4-2.4-1.1-3.1
		c-0.6-0.7-1.4-1-2.5-1c-1.8,0-3.3,1.7-3.7,4.1H93.4z"/>
	<path class="st2" d="M30.4,132c0.2,0.7,0.9,1,1.5,1h0.9v0.7h-6.1V133h0.7c1.2,0,1.6-0.3,1.6-1c0-0.2-0.1-0.5-0.2-0.8l-1.3-3.5h-7.4
		l-1.2,3.2c-0.2,0.4-0.2,0.7-0.2,1c0,0.7,0.5,0.9,1.4,1h1v0.7H15V133c1.7,0,2.2,0,3-2l5.4-14.2l1.3-0.6L30.4,132z M24,117.6
		l-3.6,9.4h6.9L24,117.6z"/>
	<path class="st2" d="M39.2,133.9h-0.4l-3.6-9.4c-0.2-0.4-0.4-1-1.4-1h-0.8v-0.7h4.8v0.7c-1,0-1.6,0-1.6,0.6c0,0.1,0,0.3,0.1,0.4
		l2.8,7.2l2.9-7.2c0-0.1,0.1-0.3,0.1-0.4c0-0.4-0.5-0.6-1-0.6h-0.7v-0.7h4.4v0.7c-1.1,0-1.6,0-2,1L39.2,133.9z"/>
	<path class="st2" d="M52.8,133c-1,0.8-2.3,1.2-3.7,1.2c-1.1,0-2.9-0.5-2.9-2.8c0-0.9,0.4-1.7,1.2-2.4c1.1-0.8,3.1-1.4,6.1-1.8v-1.6
		c0-1.6-1.5-2.6-2.9-2.6c-1.7,0-2.5,1.1-2.5,1.6v0.3c0,0.3,0.1,0.9-0.7,0.9c-0.6,0-0.7-0.4-0.7-0.7c0-1.5,1.6-2.8,3.9-2.8
		c2.5,0,4.1,1.7,4.1,3.3v5.5c0,0.9,0,2.4,0.5,2.4c0.2,0,0.5-0.4,0.8-1.3l0.7,0.4c-0.5,1.5-1.1,1.7-1.7,1.7c-1.3,0-1.3-1.2-1.4-2
		L52.8,133z M53.5,128c-2.4,0.4-4,0.9-5,1.6c-0.7,0.4-1,1.1-1,1.8c0,1.3,1.1,2.1,2.2,2.1c1.5,0,3.7-1.1,3.9-2.8V128z"/>
	<path class="st2" d="M60.3,124.8c0-0.6-1-0.6-1.8-0.6v-0.7c0.9,0,1.9-0.3,3-0.9v9.6c0,0.7,0.5,0.9,1,0.9h1.4v0.7h-6.1V133h1.4
		c0.5,0,1-0.2,1-0.9V124.8z M62,117.3c0,0.6-0.5,1.1-1.1,1.1c-0.7,0-1-0.5-1-1.1c0-0.6,0.4-1,1-1C61.5,116.3,62,116.7,62,117.3z"/>
	<path class="st2" d="M67.8,118.7c0-0.2,0-0.4-0.1-0.5c-0.1-0.1-0.7-0.2-1.7-0.2v-0.7c0.9,0,1.9-0.3,3-1V132c0,0.5,0.1,1,0.8,1h1.6
		v0.7h-6V133h1.4c0.9,0,1-0.6,1-1V118.7z"/>
	<path class="st2" d="M79.7,133c-1,0.8-2.3,1.2-3.7,1.2c-1.1,0-2.9-0.5-2.9-2.8c0-0.9,0.4-1.7,1.2-2.4c1.1-0.8,3.1-1.4,6.1-1.8v-1.6
		c0-1.6-1.5-2.6-2.9-2.6c-1.7,0-2.5,1.1-2.5,1.6v0.3c0,0.3,0.1,0.9-0.7,0.9c-0.6,0-0.7-0.4-0.7-0.7c0-1.5,1.6-2.8,3.9-2.8
		c2.5,0,4.1,1.7,4.1,3.3v5.5c0,0.9,0,2.4,0.5,2.4c0.2,0,0.5-0.4,0.8-1.3l0.7,0.4c-0.5,1.5-1.1,1.7-1.7,1.7c-1.3,0-1.3-1.2-1.4-2
		L79.7,133z M80.4,128c-2.4,0.4-4,0.9-5,1.6c-0.7,0.4-1,1.1-1,1.8c0,1.3,1.1,2.1,2.2,2.1c1.5,0,3.7-1.1,3.9-2.8V128z"/>
	<path class="st2" d="M86.8,124.2c1-1.1,2.2-1.6,3.7-1.6c2,0,4.4,1.6,4.4,5.3c0,3-1.6,6-4.9,6c-1.3,0-2.3-0.5-3.3-1.5l-0.5,1.4h-0.6
		v-15.2c0-0.6-0.4-0.7-1.8-0.7v-0.7c0.9,0,1.9-0.3,3-0.9V124.2z M86.8,131.2c0.4,0.9,1.7,2,3.2,2c1.1,0,1.9-0.4,2.6-1.2
		c0.8-0.9,1.2-2.2,1.2-4.1c0-1.6-0.4-2.7-1.1-3.5c-0.7-0.7-1.5-1.1-2.5-1.1c-1.7,0-3,1.4-3.3,2.1V131.2z"/>
	<path class="st2" d="M99.2,118.7c0-0.2,0-0.4-0.1-0.5c-0.1-0.1-0.7-0.2-1.7-0.2v-0.7c0.9,0,1.9-0.3,3-1V132c0,0.5,0.1,1,0.8,1h1.6
		v0.7h-6V133h1.4c0.9,0,1-0.6,1-1V118.7z"/>
	<path class="st2" d="M105.7,127.8v0.5c0,2.6,1.8,5.1,4.2,5.1c1.8,0,2.8-1.2,3.9-2.7l0.6,0.4c-1.9,2.4-2.9,3-4.8,3
		c-3.6,0-5.2-3.2-5.2-5.8c0-3.7,2.5-6.1,4.9-6.1c2.6,0,4.8,2.2,4.8,5.6H105.7z M113,127.1c-0.1-1.4-0.4-2.4-1.1-3.1
		c-0.6-0.7-1.4-1-2.5-1c-1.8,0-3.3,1.7-3.7,4.1H113z"/>
</g>
<path class="st3" d="M115.2,21.1c-2.1,0.1-4.2,0.1-6.3,0.2c-1.6,1.9,0.7,5.4,3.1,4.7c3.3-0.9,3.4-6,0.9-8.3s-6.3-2.4-9.7-2.5
	c-5.4-0.1-10.8-0.2-16.2-0.2C66,14.6,45.1,14.3,24.3,14c-4.1-0.1-9.5,0.7-10.4,4.7c-1,4,3.6,7.3,7.7,7.9c-1.8-3-5.6-4.6-9-3.8
	c2,8.8,2.9,17.9,2.8,27c-0.2,15.5-3.3,30.9-4.3,46.4c-0.5,7.9-0.4,15.7-0.3,23.6c0.2,17.2,0.5,34.3,0.7,51.5"/>
<path class="st3" d="M121.9,23.1c0.4,51.3-0.2,102.6-1.6,153.9c0,1-0.1,2.1-0.8,2.8c-0.7,0.7-1.8,0.8-2.7,0.9
	c-4.5,0.4-10.4-0.2-11.5-4.5c2.3-1.9,5.9-2.1,8.4-0.5c2.5,1.6,3.7,5,2.9,7.9c-31.2,0.5-62.3,0.9-93.5,1.4c-2.3,0-4.8,0.1-6.9-0.9
	c-2.1-0.9-3.9-3.1-3.6-5.5c0.3-2.3,3.4-4,5.2-2.5c1.6,1.7,0,4.8-2.3,5.5c-2.3,0.6-4.7-0.4-6.8-1.3"/>
<rect x="1.8" class="st4" width="1.5" height="201"/>
<path class="st3" d="M104.6,19.2c-11.1,2.1-22.4,3.2-33.7,3.3c-16.4,0.1-32.6-1.9-48.9-3.9"/>
</svg>
